<?xml version="1.0" encoding="UTF-8"?>
<svg id="Layer_1" data-name="Layer 1" xmlns="http://www.w3.org/2000/svg" viewBox="0 0 466.56 62.17">
  <defs>
    <style>
      .cls-1 {
        fill: #e6e7e7;
      }
    </style>
  </defs>
  <path class="cls-1" d="M2.34,59.22c-1.56-1.5-2.34-3.47-2.34-5.9V.69h29c4.63,0,8.7.87,12.2,2.6,3.5,1.74,6.22,4.2,8.16,7.38,1.94,3.18,2.91,6.86,2.91,11.03v17.02c0,7.47-1.94,13.13-5.82,16.98-3.88,3.85-9.58,5.77-17.11,5.77H8.42c-2.49,0-4.52-.75-6.08-2.26ZM29,50.89c3.7,0,6.51-1.07,8.42-3.21,1.91-2.14,2.87-5.3,2.87-9.46v-15.98c0-3.3-1.07-5.95-3.21-7.95-2.14-2-4.95-3-8.42-3H11.98v39.6h17.02Z"/>
  <path class="cls-1" d="M75.29,37.86L52.8.69h13.03l15.46,26.14L96.73.69h13.03l-22.49,37.17v23.62h-11.98v-23.62Z"/>
  <path class="cls-1" d="M114.97.69h10.68l19.89,36.12L164.99.69h10.68v60.78h-11.72V23.01l-12.76,23.1c-.87,1.56-1.75,2.68-2.65,3.34-.9.67-1.93,1-3.08,1h-3.3l-15.46-27.44v38.47h-11.72V.69Z"/>
  <path class="cls-1" d="M195.77,59.27c-3.5-1.94-6.22-4.66-8.16-8.16-1.94-3.5-2.91-7.57-2.91-12.2v-15.63c0-4.63.97-8.7,2.91-12.2,1.94-3.5,4.66-6.22,8.16-8.16,3.5-1.94,7.54-2.91,12.11-2.91h9.2c4.57,0,8.61.97,12.11,2.91,3.5,1.94,6.22,4.66,8.16,8.16,1.94,3.5,2.91,7.57,2.91,12.2v15.63c0,4.63-.97,8.7-2.91,12.2-1.94,3.5-4.66,6.22-8.16,8.16-3.5,1.94-7.54,2.91-12.11,2.91h-9.2c-4.57,0-8.61-.97-12.11-2.91ZM217.09,51.58c3.36,0,6.06-1.22,8.12-3.65,2.05-2.43,3.08-5.61,3.08-9.55v-14.59c0-3.94-1.03-7.12-3.08-9.55-2.06-2.43-4.76-3.65-8.12-3.65h-9.2c-3.36,0-6.06,1.22-8.12,3.65-2.06,2.43-3.08,5.62-3.08,9.55v14.59c0,3.94,1.03,7.12,3.08,9.55,2.05,2.43,4.76,3.65,8.12,3.65h9.2Z"/>
  <path class="cls-1" d="M249.3.69h10.68l29.18,41.33V.69h11.72v60.78h-10.68l-29.18-41.33v41.33h-11.72V.69Z"/>
  <path class="cls-1" d="M313.99,59.22c-1.56-1.5-2.34-3.47-2.34-5.9V.69h29c4.63,0,8.7.87,12.2,2.6,3.5,1.74,6.22,4.2,8.16,7.38,1.94,3.18,2.91,6.86,2.91,11.03v17.02c0,7.47-1.94,13.13-5.82,16.98-3.88,3.85-9.58,5.77-17.11,5.77h-20.93c-2.49,0-4.52-.75-6.08-2.26ZM340.65,50.89c3.7,0,6.51-1.07,8.42-3.21,1.91-2.14,2.87-5.3,2.87-9.46v-15.98c0-3.3-1.07-5.95-3.21-7.95-2.14-2-4.95-3-8.42-3h-16.67v39.6h17.02Z"/>
  <path class="cls-1" d="M408.64,43.77h-27.35l-6.69,17.71h-4.95L392.84.69h2.26c1.39,0,2.43.9,3.13,2.69l21.97,58.09h-4.95l-6.6-17.71ZM382.77,39.68h24.4l-12.16-32.56h-.09l-12.16,32.56Z"/>
  <path class="cls-1" d="M438.08,58.35L417.07.69h4.95l19.71,54.88h.09L461.61.69h4.95l-22.4,60.78h-2.34c-1.74,0-2.98-1.04-3.73-3.13Z"/>
</svg>